<svg width="8" height="14" viewBox="0 0 8 14" fill="none" xmlns="http://www.w3.org/2000/svg">
<g id="drag">
<g id="Group 48095796" opacity="0.5">
<path id="Vector" d="M1.09406 0.427943C1.44253 0.352034 1.82109 0.411256 2.12407 0.601683C2.47973 0.817303 2.7284 1.20045 2.7778 1.61402C2.82623 1.97819 2.72185 2.35871 2.49511 2.64763C2.26575 2.94439 1.9127 3.14234 1.53872 3.17801C1.0885 3.22872 0.621269 3.04059 0.330721 2.69311C0.043118 2.36068 -0.0671464 1.88755 0.03821 1.46155C0.155673 0.952761 0.583642 0.536244 1.09406 0.427943Z" fill="white"/>
<path id="Vector_2" d="M6.31167 0.425629C6.66801 0.350696 7.0538 0.418103 7.35876 0.618686C7.69972 0.836285 7.93564 1.20964 7.98505 1.61146C8.03446 1.97958 7.92812 2.36504 7.69645 2.65528C7.44973 2.9717 7.06067 3.1713 6.65918 3.18471C6.24525 3.20435 5.82837 3.02601 5.55613 2.71418C5.26982 2.3958 5.14809 1.94097 5.23219 1.52147C5.33133 0.983859 5.77602 0.533937 6.31167 0.425629Z" fill="white"/>
<path id="Vector_3" d="M1.2561 5.61358C1.62254 5.57694 2.00239 5.69014 2.28442 5.928C2.59229 6.1809 2.78206 6.57123 2.78827 6.97006C2.80136 7.39866 2.60113 7.82628 2.26479 8.09162C1.99814 8.30821 1.64806 8.41651 1.3055 8.39426C0.893915 8.37103 0.499993 8.1515 0.261153 7.81581C0.0246039 7.49191 -0.0575174 7.0633 0.0380184 6.67429C0.165618 6.10991 0.679286 5.66233 1.2561 5.61358Z" fill="white"/>
<path id="Vector_4" d="M6.47534 5.61283C6.79565 5.58273 7.12576 5.66616 7.3911 5.84905C7.73823 6.08363 7.96856 6.4818 7.99604 6.90026C8.02876 7.30922 7.86714 7.72735 7.56941 8.0097C7.29589 8.27536 6.90852 8.41736 6.52802 8.39478C6.12298 8.37548 5.73332 8.16576 5.49088 7.84088C5.22751 7.49833 5.1431 7.02949 5.26415 6.61496C5.41301 6.07513 5.91653 5.65733 6.47534 5.61283Z" fill="white"/>
<path id="Vector_5" d="M1.12689 10.8393C1.4868 10.7693 1.87452 10.8448 2.17718 11.0533C2.50142 11.2718 2.72653 11.6321 2.77627 12.0204C2.82371 12.3604 2.73995 12.717 2.54363 12.9991C2.3231 13.323 1.96025 13.5468 1.57023 13.5923C1.12296 13.6531 0.653113 13.4768 0.354713 13.1385C0.0536962 12.8086 -0.0676923 12.329 0.034719 11.8948C0.149564 11.3683 0.59749 10.9371 1.12689 10.8393Z" fill="white"/>
<path id="Vector_6" d="M6.34429 10.8373C6.68129 10.7745 7.04087 10.8386 7.3324 11.0202C7.67496 11.2283 7.91806 11.5915 7.97892 11.988C8.03814 12.3509 7.94653 12.7356 7.72797 13.0314C7.49501 13.354 7.11809 13.5674 6.72121 13.5984C6.29325 13.6387 5.85318 13.464 5.56689 13.144C5.27046 12.822 5.14482 12.3564 5.23447 11.9288C5.33884 11.3844 5.79854 10.9332 6.34429 10.8373Z" fill="white"/>
</g>
</g>
</svg>
