<svg width="196" height="30" viewBox="0 0 196 30" fill="none" xmlns="http://www.w3.org/2000/svg">
<g clip-path="url(#clip0_1_3959)">
<ellipse cx="22.1886" cy="19.0199" rx="10.0343" ry="10.0343" fill="url(#paint0_linear_1_3959)"/>
<ellipse cx="18.8441" cy="14.56" rx="2.22983" ry="2.22984" fill="white"/>
<ellipse cx="45.6026" cy="19.0199" rx="10.0343" ry="10.0343" fill="url(#paint1_linear_1_3959)"/>
<ellipse cx="41.1429" cy="14.56" rx="2.22984" ry="2.22984" fill="white"/>
<rect x="0.415039" width="6.59038" height="29.0941" rx="3.29519" fill="#8D27ED"/>
<rect x="73.3721" y="7.53613" width="5.31568" height="15.2553" rx="2.65784" transform="rotate(45 73.3721 7.53613)" fill="#6825FD"/>
<rect x="77.7441" y="26.0671" width="5.56196" height="15.9148" rx="2.78098" transform="rotate(135 77.7441 26.0671)" fill="#6825FD"/>
<rect x="60.7773" width="6.59038" height="29.0941" rx="3.29519" fill="#8D27ED"/>
</g>
<path d="M95.0444 27V18.616C95.0444 15.704 95.0124 13.496 94.7884 12.088L100.708 27H104.484L110.436 12.056C110.212 13.72 110.212 15.096 110.212 19.8V27H114.18V3.608H110.148L102.596 22.232L95.0444 3.608H91.0764V27H95.0444ZM125.854 27.416C129.982 27.416 132.862 25.336 133.534 21.88H129.918C129.47 23.384 128.062 24.216 125.918 24.216C123.326 24.216 121.854 22.808 121.566 20.024L133.47 19.992V18.808C133.47 13.88 130.462 10.712 125.726 10.712C121.086 10.712 117.854 14.136 117.854 19.096C117.854 23.992 121.15 27.416 125.854 27.416ZM125.758 13.912C128.094 13.912 129.598 15.352 129.598 17.528H121.662C122.046 15.16 123.454 13.912 125.758 13.912ZM140.498 27V18.04C140.498 15.48 142.002 14.264 143.858 14.264C145.714 14.264 146.898 15.448 146.898 17.656V27H150.802V18.04C150.802 15.448 152.242 14.232 154.13 14.232C155.986 14.232 157.202 15.416 157.202 17.688V27H161.074V16.664C161.074 13.016 158.962 10.712 155.122 10.712C152.722 10.712 150.866 11.896 150.066 13.72C149.234 11.896 147.57 10.712 145.17 10.712C142.898 10.712 141.298 11.736 140.498 13.048L140.178 11.192H136.594V27H140.498ZM171.979 27.416C176.107 27.416 178.987 25.336 179.659 21.88H176.043C175.595 23.384 174.187 24.216 172.043 24.216C169.451 24.216 167.979 22.808 167.691 20.024L179.595 19.992V18.808C179.595 13.88 176.587 10.712 171.851 10.712C167.211 10.712 163.979 14.136 163.979 19.096C163.979 23.992 167.275 27.416 171.979 27.416ZM171.883 13.912C174.219 13.912 175.723 15.352 175.723 17.528H167.787C168.171 15.16 169.579 13.912 171.883 13.912ZM181.503 22.2C181.503 25.304 183.999 27.416 187.935 27.416C191.839 27.416 194.559 25.432 194.559 22.232C194.559 19.8 193.215 18.584 190.559 17.976L187.711 17.304C186.367 16.984 185.663 16.408 185.663 15.512C185.663 14.328 186.559 13.624 188.095 13.624C189.599 13.624 190.495 14.488 190.527 15.832H194.239C194.207 12.76 191.807 10.712 188.255 10.712C184.607 10.712 181.983 12.568 181.983 15.672C181.983 18.2 183.359 19.544 186.207 20.184L189.055 20.856C190.463 21.176 190.879 21.752 190.879 22.552C190.879 23.704 189.887 24.44 188.063 24.44C186.271 24.44 185.247 23.576 185.215 22.2H181.503Z" fill="white"/>
<defs>
<linearGradient id="paint0_linear_1_3959" x1="22.1886" y1="8.98559" x2="22.1886" y2="29.0541" gradientUnits="userSpaceOnUse">
<stop stop-color="#6613D1"/>
<stop offset="1" stop-color="#CD57EE"/>
</linearGradient>
<linearGradient id="paint1_linear_1_3959" x1="45.6026" y1="8.98559" x2="45.6026" y2="29.0541" gradientUnits="userSpaceOnUse">
<stop stop-color="#6613D1"/>
<stop offset="1" stop-color="#CD57EE"/>
</linearGradient>
<clipPath id="clip0_1_3959">
<rect width="78" height="30" fill="white"/>
</clipPath>
</defs>
</svg>
